<?xml version="1.0" standalone="no"?>
<!DOCTYPE svg PUBLIC "-//W3C//DTD SVG 20010904//EN"
 "http://www.w3.org/TR/2001/REC-SVG-20010904/DTD/svg10.dtd">
<svg version="1.0" xmlns="http://www.w3.org/2000/svg"
 width="652.000000pt" height="438.000000pt" viewBox="0 0 652.000000 438.000000"
 preserveAspectRatio="xMidYMid meet">

<g transform="translate(0.000000,438.000000) scale(0.100000,-0.100000)"
fill="#000000" stroke="none">
<path d="M0 2190 l0 -2190 3260 0 3260 0 0 2190 0 2190 -3260 0 -3260 0 0
-2190z m4185 1639 c68 -55 146 -125 174 -155 78 -85 171 -213 196 -270 29 -65
49 -157 40 -185 -6 -19 -12 -20 -48 -15 -80 13 -87 21 -172 189 l-80 158 -120
93 c-207 161 -228 191 -178 251 15 18 36 34 46 34 10 1 74 -44 142 -100z
m-388 -110 c43 -61 97 -138 121 -171 23 -33 42 -65 42 -70 0 -13 -53 -1 -116
27 -64 28 -125 82 -159 141 l-26 44 -104 0 c-95 0 -106 2 -125 22 -33 36 -36
65 -9 94 22 23 27 24 160 24 l138 0 78 -111z m-387 -204 l144 -5 76 -42 c217
-119 368 -217 377 -245 6 -18 -40 -2 -131 47 -158 83 -329 125 -556 135 l-135
7 -64 -56 c-36 -31 -70 -56 -76 -56 -10 0 -127 82 -122 86 1 1 39 24 84 52
139 87 152 92 208 87 27 -2 115 -7 195 -10z m-1682 -55 l202 0 15 -32 c8 -18
21 -60 30 -93 14 -51 25 -68 73 -113 65 -61 191 -153 272 -199 127 -72 289
-100 482 -83 66 6 132 13 147 17 47 11 115 51 150 87 33 34 36 35 53 19 28
-25 22 -46 -22 -79 -23 -16 -66 -55 -98 -86 -48 -48 -66 -59 -112 -70 -75 -16
-262 -16 -330 1 -74 18 -161 61 -153 75 3 6 3 8 -2 4 -4 -4 -22 0 -39 9 -34
17 -178 112 -186 123 -3 4 -41 31 -85 60 -135 89 -167 119 -161 146 5 18 3 22
-9 18 -8 -4 -15 -1 -15 5 0 6 -8 8 -17 4 -10 -3 -14 -2 -10 2 4 5 -27 16 -70
25 -227 49 -397 102 -435 137 -33 29 -21 36 50 30 37 -4 158 -7 270 -7z m548
-50 c43 -34 117 -80 164 -103 l85 -41 145 -6 145 -5 77 -58 c84 -62 109 -94
87 -108 -20 -12 -351 -11 -429 2 -36 5 -97 26 -137 45 -156 75 -384 282 -358
324 3 6 37 10 74 10 67 0 68 0 147 -60z m-773 -198 c3 -4 -20 -29 -51 -55 -31
-26 -91 -77 -132 -112 -111 -97 -164 -129 -189 -115 -12 6 -21 17 -21 26 0 23
47 110 118 219 98 151 80 141 182 90 49 -25 91 -48 93 -53z m1962 -47 c160
-86 215 -126 215 -158 0 -26 -24 -67 -93 -161 -28 -38 -52 -76 -52 -85 -6 -63
-21 -85 -131 -196 -63 -63 -119 -115 -124 -115 -4 0 -10 -6 -13 -12 -2 -7 -6
0 -9 15 -4 20 2 39 18 63 13 19 24 37 24 40 0 6 -44 -29 -115 -91 l-40 -34 -5
-97 c-5 -75 -10 -99 -23 -109 -9 -7 -17 -16 -17 -21 0 -5 -8 -18 -16 -29 -15
-18 -15 -14 -9 52 9 90 -6 158 -46 213 -16 22 -29 43 -29 47 0 5 21 22 45 39
98 67 503 460 489 474 -5 5 -58 34 -119 66 -116 60 -194 109 -196 124 -5 30
-1 35 26 41 61 13 81 7 220 -66z m788 -257 c14 -18 55 -82 92 -143 37 -60 78
-126 90 -145 65 -105 125 -209 125 -219 0 -14 -44 -25 -73 -17 -14 3 -43 32
-68 67 -24 34 -70 98 -102 141 -74 101 -177 262 -177 276 0 10 69 71 82 72 4
0 18 -15 31 -32z m450 13 c32 -3 58 -10 59 -16 1 -5 -27 -26 -62 -45 -35 -19
-90 -59 -122 -89 -56 -51 -58 -52 -58 -26 0 14 4 24 9 20 5 -3 18 6 29 20 11
13 23 21 27 17 5 -4 5 1 2 11 -4 11 -1 17 8 17 8 0 15 5 15 10 0 7 -6 7 -18 1
-16 -8 -65 -14 -104 -12 -10 1 -32 20 -49 44 l-31 42 29 6 c37 9 192 9 266 0z
m-2749 -37 c122 -32 277 -137 356 -242 70 -94 69 -97 -40 -95 l-90 1 -45 45
c-56 56 -127 104 -179 120 -23 6 -81 12 -131 11 -78 0 -98 -4 -150 -29 -124
-59 -218 -192 -235 -332 -27 -219 101 -399 328 -458 109 -28 245 8 345 92 53
44 83 53 190 53 l68 0 -43 -61 c-105 -151 -274 -247 -448 -257 -277 -15 -548
193 -605 463 -41 197 9 373 150 524 68 72 105 98 195 136 112 47 226 57 334
29z m2998 -155 c114 -116 176 -249 185 -395 6 -91 -15 -211 -50 -279 -94 -187
-310 -325 -507 -325 -170 0 -312 61 -436 185 -135 135 -192 285 -182 477 5 80
10 99 47 171 65 129 61 127 113 71 23 -26 52 -56 62 -66 19 -18 19 -19 -7 -75
-81 -171 -45 -347 97 -481 213 -202 544 -135 655 133 42 100 50 174 26 261
-28 104 -116 222 -191 256 -14 7 -23 15 -22 19 4 10 131 108 142 108 4 1 35
-26 68 -60z m-299 -232 c40 -17 105 -88 112 -122 3 -14 7 -36 10 -49 3 -13 -2
-45 -9 -70 -29 -96 -99 -153 -202 -163 -44 -5 -62 -1 -108 21 -89 44 -150 146
-130 217 l9 32 55 -47 c95 -82 145 -100 199 -72 53 28 65 99 31 175 -22 47
-26 91 -10 91 6 0 25 -6 43 -13z m-3685 -79 c20 -20 14 -65 -10 -82 -19 -14
-66 -16 -310 -16 l-288 0 -16 25 c-15 23 -15 27 0 50 l16 25 253 3 c138 1 272
3 298 5 25 1 50 -3 57 -10z m1853 -6 c68 -34 101 -127 63 -180 -35 -50 -32
-50 -589 -50 -571 1 -556 -1 -594 61 -37 60 -20 130 42 167 31 19 53 20 538
20 456 -1 509 -3 540 -18z m3367 3 c2 -2 6 -21 9 -43 l5 -40 -53 -6 c-30 -4
-200 -5 -378 -3 -307 3 -324 4 -338 22 -7 11 -13 31 -11 45 3 22 9 26 48 30
48 6 712 1 718 -5z m-5218 -277 c24 -39 25 -52 6 -71 -12 -12 -67 -14 -300
-15 l-285 -1 -21 26 c-24 31 -26 56 -4 77 13 14 55 16 300 16 l284 0 20 -32z
m5227 -4 c33 -69 38 -68 -333 -76 -181 -4 -346 -5 -367 -2 -36 6 -67 34 -67
61 0 7 9 22 20 33 19 19 33 20 375 20 l355 0 17 -36z m-4544 -590 c31 -3 60
-10 63 -15 3 -5 9 -7 14 -4 4 3 14 -3 21 -12 8 -10 9 -14 2 -10 -8 5 -13 -3
-15 -25 -3 -31 -5 -33 -53 -40 -27 -3 -364 -7 -747 -7 l-697 -1 -20 29 c-27
38 -26 47 7 76 l27 24 670 -4 c369 -3 696 -7 728 -11z m1659 6 l1148 0 4 -22
c3 -13 8 -40 11 -60 l6 -38 -1229 0 c-1229 0 -1229 0 -1256 21 -47 37 -26 92
39 102 17 3 53 3 80 1 28 -2 566 -4 1197 -4z m2965 -24 c21 -25 22 -29 7 -51
-8 -13 -29 -28 -46 -34 -21 -7 -240 -11 -670 -11 l-640 0 -29 31 c-36 39 -36
52 -1 79 l27 22 664 -4 664 -5 24 -27z m-4176 -296 c61 -17 139 -80 172 -139
l30 -53 5 -444 5 -444 -77 0 -76 0 0 135 0 135 -120 0 -120 0 0 -134 0 -134
-71 -4 c-39 -2 -73 -1 -75 1 -9 10 -3 878 6 913 16 56 85 125 155 153 65 27
110 31 166 15z m1492 -85 l1 -90 -89 -3 -90 -3 3 -449 3 -450 -80 0 -80 0 -7
37 c-4 21 -4 224 -1 450 l6 413 -94 0 c-52 0 -96 3 -98 8 -2 4 -2 44 1 89 l4
83 207 3 c113 1 230 3 259 2 l53 0 2 -90z m1719 82 c113 -3 132 -7 182 -31 60
-30 107 -88 128 -160 8 -28 11 -144 9 -371 -2 -327 -2 -330 -25 -365 -74 -112
-121 -131 -348 -144 -98 -5 -180 -7 -182 -5 -8 8 -11 303 -8 710 l2 375 58 -3
c31 -1 114 -4 184 -6z m836 -26 c60 -31 101 -74 130 -139 14 -32 17 -93 20
-474 l4 -438 -76 0 -76 0 0 140 0 140 -125 0 -125 0 -1 -42 c-1 -24 0 -78 1
-120 3 -117 2 -118 -81 -118 l-69 0 -2 373 c-3 523 -2 534 58 612 78 103 216
130 342 66z m-5525 -1 c73 -37 123 -96 137 -164 12 -58 11 -113 -2 -108 -5 1
-39 2 -77 2 l-68 0 -7 39 c-9 59 -52 91 -122 91 -60 0 -107 -19 -119 -47 -4
-10 -6 -54 -6 -98 2 -105 15 -118 138 -135 220 -31 284 -113 269 -344 -4 -63
-13 -114 -25 -140 -42 -94 -139 -146 -272 -146 -65 0 -85 5 -137 31 -96 48
-152 132 -152 229 l0 50 75 0 c41 0 78 1 83 2 4 1 10 -20 14 -47 10 -68 29
-83 113 -91 67 -6 72 -5 103 21 32 27 32 27 32 121 0 121 -6 128 -119 138
-125 10 -227 70 -273 160 -18 34 -20 57 -20 168 1 146 14 183 79 237 58 48
105 61 213 58 78 -2 103 -6 143 -27z m350 -12 c56 -70 267 -424 267 -449 0
-26 20 0 58 74 92 179 132 249 175 304 63 81 89 103 131 110 l36 6 0 -542 0
-541 -80 0 -80 0 -2 313 -3 312 -42 -71 c-54 -90 -147 -227 -167 -243 -8 -7
-20 -10 -27 -6 -15 10 -101 142 -152 235 l-42 75 -5 -309 -5 -309 -80 0 -80 1
-3 489 c-2 268 0 512 3 541 6 49 8 52 35 52 22 0 37 -10 63 -42z m1839 30 c50
-15 122 -78 151 -132 19 -36 22 -60 25 -190 5 -181 -5 -214 -81 -280 l-50 -45
40 -88 c62 -132 93 -221 100 -283 l5 -55 -73 5 -74 5 -52 153 c-28 84 -62 171
-75 194 -21 39 -28 43 -73 50 -28 4 -53 4 -57 0 -6 -6 -16 -204 -17 -344 l-1
-58 -75 0 -75 0 0 540 0 540 171 0 c103 0 187 -5 211 -12z m1293 -12 c61 -28
112 -77 136 -131 15 -32 19 -66 19 -165 0 -134 -2 -142 -58 -202 l-25 -27 36
-40 c20 -22 39 -51 43 -65 3 -13 4 -78 2 -144 -3 -115 -4 -122 -33 -163 -17
-24 -52 -57 -79 -73 -47 -29 -51 -30 -242 -39 -107 -5 -198 -6 -202 -3 -9 10
-8 967 2 1029 l7 47 172 0 c159 0 176 -2 222 -24z m679 10 c47 -19 102 -71
134 -125 l27 -46 -1 -355 c0 -343 -1 -356 -22 -396 -27 -52 -90 -107 -141
-122 -57 -17 -204 -15 -249 3 -46 20 -108 78 -133 127 -18 35 -19 62 -19 388
0 386 -1 380 66 459 49 58 106 80 212 81 57 0 105 -5 126 -14z"/>
<path d="M1980 1039 c-19 -11 -40 -27 -46 -35 -8 -9 -12 -85 -13 -219 l-2
-205 115 0 116 0 0 208 c0 203 -1 209 -22 229 -53 48 -94 54 -148 22z"/>
<path d="M5224 690 l1 -375 95 8 c102 9 135 23 150 63 6 14 10 156 10 318 l0
292 -32 31 c-31 29 -38 31 -129 35 l-96 4 1 -376z"/>
<path d="M5949 1032 l-41 -37 2 -200 c0 -109 2 -200 3 -201 1 -1 52 -4 114 -6
107 -5 112 -5 117 16 10 38 6 376 -4 397 -12 22 -100 69 -130 69 -11 0 -39
-17 -61 -38z"/>
<path d="M2590 864 c1 -147 5 -207 15 -229 l13 -30 1 28 c2 56 15 67 86 67 57
0 69 3 95 28 30 27 31 27 33 147 l3 120 -29 28 c-27 25 -36 27 -107 27 -43 0
-85 3 -94 6 -14 5 -16 -15 -16 -192z"/>
<path d="M3850 908 l0 -153 100 5 c134 7 145 18 154 145 l6 91 -31 32 c-31 32
-32 32 -130 32 l-99 0 0 -152z"/>
<path d="M3844 458 l1 -143 105 3 c98 3 107 5 133 30 25 24 27 32 27 104 0 72
-2 80 -31 113 l-31 35 -102 0 -102 0 0 -142z"/>
<path d="M4597 1061 c-6 -2 -24 -15 -38 -28 l-27 -25 -1 -313 -2 -313 25 -28
c21 -26 31 -29 98 -32 69 -4 76 -2 106 23 l32 27 -2 326 -3 326 -34 20 c-31
18 -118 28 -154 17z"/>
</g>
</svg>
