<svg id="svg" version="1.1" xmlns="http://www.w3.org/2000/svg" xmlns:xlink="http://www.w3.org/1999/xlink" width="400" height="268.71165644171776" viewBox="0, 0, 400,268.71165644171776"><g id="svgg"><path id="path0" d="M0.000 134.356 L 0.000 268.712 200.000 268.712 L 400.000 268.712 400.000 134.356 L 400.000 0.000 200.000 0.000 L 0.000 0.000 0.000 134.356 M256.762 33.777 C 270.977 45.323,279.527 56.600,281.586 66.519 C 282.624 71.519,282.101 72.630,278.951 72.127 C 274.060 71.345,273.630 70.872,268.402 60.541 L 263.492 50.837 256.132 45.125 C 243.437 35.271,242.150 33.458,245.223 29.756 C 247.716 26.752,248.411 26.994,256.762 33.777 M232.938 40.550 C 235.574 44.294,238.903 49.018,240.337 51.048 C 243.486 55.504,243.562 56.060,240.951 55.491 C 234.897 54.171,229.001 50.032,226.083 45.052 L 224.488 42.331 218.096 42.331 C 211.174 42.331,209.673 41.659,208.797 38.168 C 207.928 34.707,210.304 33.742,219.701 33.742 L 228.145 33.742 232.938 40.550 M209.177 53.064 L 218.048 53.404 222.674 55.933 C 236.041 63.240,245.285 69.242,245.853 70.981 C 246.219 72.102,243.387 71.102,237.762 68.127 C 228.116 63.023,217.620 60.456,203.681 59.792 L 195.399 59.397 191.457 62.827 C 189.289 64.714,187.262 66.258,186.953 66.258 C 186.354 66.258,179.015 61.252,179.287 61.029 C 179.375 60.956,181.699 59.495,184.450 57.782 C 192.982 52.469,193.779 52.136,197.212 52.445 C 198.914 52.599,204.298 52.877,209.177 53.064 M105.992 56.437 L 118.425 56.442 119.307 58.436 C 119.793 59.532,120.639 62.086,121.187 64.110 C 122.336 68.351,125.483 71.708,134.049 77.832 C 147.144 87.195,156.220 89.719,171.891 88.359 C 182.616 87.427,186.056 86.222,190.144 81.964 C 192.122 79.904,192.319 79.831,193.365 80.777 C 194.996 82.253,194.728 83.832,192.638 85.067 C 191.626 85.665,190.798 86.362,190.798 86.616 C 190.798 86.870,190.314 86.905,189.724 86.693 C 189.133 86.481,188.847 86.525,189.088 86.792 C 190.165 87.984,182.509 94.426,179.094 95.201 C 174.665 96.206,163.106 96.175,158.896 95.146 C 154.401 94.047,149.015 91.414,149.504 90.554 C 149.716 90.182,149.673 90.073,149.407 90.313 C 148.689 90.960,137.017 84.120,135.583 82.211 C 135.414 81.987,133.067 80.336,130.368 78.542 C 121.991 72.976,120.095 71.234,120.530 69.501 C 120.794 68.451,120.694 68.127,120.201 68.432 C 119.813 68.672,119.293 68.543,119.047 68.144 C 118.801 67.746,116.278 66.923,113.441 66.315 C 98.979 63.217,88.763 60.020,86.350 57.837 C 84.381 56.055,85.101 55.634,89.417 56.042 C 91.695 56.257,99.153 56.435,105.992 56.437 M139.612 59.538 C 142.288 61.578,146.825 64.400,149.693 65.809 L 154.908 68.371 163.804 68.703 L 172.699 69.034 177.440 72.568 C 186.248 79.133,185.723 79.734,171.166 79.741 C 151.783 79.749,144.101 76.726,131.092 63.970 C 124.515 57.520,124.412 55.828,130.599 55.828 C 134.724 55.828,134.769 55.847,139.612 59.538 M92.239 71.630 C 92.409 71.905,90.981 73.435,89.065 75.030 C 87.150 76.625,83.512 79.728,80.982 81.926 C 72.551 89.249,68.098 91.134,68.098 87.381 C 68.098 85.495,76.648 70.952,80.230 66.746 C 81.084 65.744,91.125 69.827,92.239 71.630 M212.564 74.564 C 228.302 82.944,228.404 83.250,219.336 95.092 C 217.915 96.948,216.871 98.811,217.016 99.233 C 217.161 99.655,216.969 100.000,216.589 100.000 C 216.208 100.000,215.942 100.345,215.997 100.767 C 216.331 103.342,215.437 104.652,208.831 111.271 C 202.255 117.859,200.551 119.382,201.534 117.791 C 201.742 117.454,201.640 117.178,201.306 117.178 C 200.972 117.178,200.602 117.799,200.484 118.558 C 200.291 119.804,200.235 119.772,199.907 118.221 C 199.648 116.992,199.959 115.891,200.999 114.359 C 201.799 113.180,202.454 112.066,202.454 111.884 C 202.454 111.464,198.639 114.533,195.245 117.683 L 192.638 120.104 192.638 124.736 C 192.638 129.598,191.837 132.851,190.799 132.209 C 190.461 132.000,190.184 132.398,190.184 133.093 C 190.184 133.787,189.928 134.356,189.616 134.356 C 189.303 134.356,188.903 134.839,188.727 135.429 C 188.552 136.020,188.559 134.503,188.744 132.058 C 189.159 126.583,188.203 122.309,185.831 119.035 C 183.578 115.925,183.564 116.004,186.823 113.772 C 192.931 109.589,217.699 85.551,216.813 84.666 C 216.505 84.358,213.228 82.548,209.531 80.644 C 202.363 76.952,197.604 73.931,197.454 72.977 C 197.173 71.190,197.403 70.836,199.080 70.477 C 202.848 69.672,204.070 70.042,212.564 74.564 M260.936 90.337 C 261.756 91.434,264.293 95.368,266.575 99.080 C 268.857 102.791,271.330 106.794,272.069 107.975 C 279.992 120.625,280.522 121.870,278.221 122.447 C 274.569 123.364,271.257 119.654,258.457 100.307 C 253.254 92.442,253.309 92.698,256.288 90.264 C 259.154 87.923,259.132 87.922,260.936 90.337 M288.513 89.484 C 293.131 89.997,293.105 90.653,288.358 93.252 C 286.201 94.433,282.830 96.878,280.868 98.686 C 277.416 101.866,277.301 101.920,277.301 100.337 C 277.301 99.437,277.555 98.858,277.865 99.049 C 278.175 99.241,278.967 98.715,279.624 97.879 C 280.281 97.044,281.037 96.558,281.305 96.800 C 281.572 97.042,281.617 96.756,281.405 96.166 C 281.120 95.369,281.342 95.092,282.264 95.092 C 282.948 95.092,283.337 94.815,283.128 94.477 C 282.891 94.095,282.355 94.072,281.711 94.417 C 280.732 94.940,277.682 95.292,275.311 95.154 C 274.722 95.120,273.389 93.919,272.349 92.485 L 270.457 89.877 272.192 89.490 C 274.450 88.985,283.993 88.982,288.513 89.484 M119.850 91.774 C 127.343 93.715,136.842 100.177,141.689 106.630 C 146.032 112.412,145.954 112.599,139.266 112.474 L 133.746 112.370 131.011 109.636 C 118.007 96.631,98.871 99.195,91.066 114.987 C 78.634 140.142,108.198 164.033,129.657 146.173 C 132.898 143.475,134.753 142.962,141.297 142.952 L 145.477 142.945 142.847 146.694 C 126.842 169.510,93.762 166.935,80.927 141.873 C 67.842 116.320,92.431 84.671,119.850 91.774 M303.796 101.295 C 324.303 122.253,315.997 154.301,288.136 161.719 C 260.726 169.017,233.353 136.411,245.935 111.450 C 249.908 103.568,249.722 103.684,252.861 107.113 C 254.324 108.711,256.056 110.525,256.709 111.143 C 257.881 112.252,257.875 112.312,256.238 115.796 C 244.342 141.114,277.454 164.982,297.132 145.274 C 308.669 133.720,305.959 111.619,292.240 105.368 C 290.303 104.486,290.421 104.292,295.092 100.691 C 300.042 96.875,299.430 96.833,303.796 101.295 M285.449 115.550 C 287.884 116.570,291.881 120.900,292.316 122.991 C 292.493 123.843,292.773 125.197,292.938 125.999 C 294.219 132.237,287.631 139.533,280.006 140.320 C 272.159 141.130,263.470 132.430,265.401 125.696 L 265.958 123.756 269.329 126.653 C 279.570 135.455,288.473 131.462,283.422 120.332 C 281.191 115.414,281.784 114.016,285.449 115.550 M59.387 120.368 C 60.607 121.588,60.261 124.373,58.759 125.425 C 57.602 126.236,54.728 126.380,39.755 126.380 L 22.114 126.380 21.109 124.847 C 20.181 123.429,20.180 123.197,21.102 121.790 L 22.100 120.266 37.584 120.092 C 46.100 119.995,54.324 119.853,55.859 119.774 C 57.402 119.696,58.979 119.961,59.387 120.368 M173.059 120.740 C 178.833 123.639,179.576 131.286,174.347 133.990 C 171.955 135.227,109.710 135.221,107.268 133.983 C 102.066 131.347,101.876 123.922,106.932 120.831 C 109.760 119.102,169.633 119.019,173.059 120.740 M379.679 120.578 C 381.055 121.955,379.896 125.422,377.914 125.858 C 372.710 127.001,334.281 126.107,333.341 124.821 C 331.600 122.440,332.501 120.591,335.583 120.219 C 338.586 119.856,379.288 120.188,379.679 120.578 M59.516 137.577 C 62.568 142.582,61.966 142.757,41.468 142.812 L 23.948 142.859 22.710 141.285 C 18.689 136.174,20.569 135.583,40.850 135.583 L 58.300 135.583 59.516 137.577 M380.201 137.763 C 382.235 142.029,382.493 141.969,359.750 142.460 C 334.954 142.995,333.129 142.746,333.129 138.821 C 333.129 135.709,334.075 135.583,357.372 135.583 L 379.161 135.583 380.201 137.763 M100.769 173.965 C 103.048 174.181,105.069 174.611,105.260 174.919 C 105.450 175.228,105.832 175.341,106.108 175.170 C 106.384 175.000,106.986 175.324,107.446 175.891 C 107.935 176.495,107.981 176.742,107.555 176.486 C 107.066 176.193,106.765 176.706,106.635 178.056 C 106.364 180.866,106.632 180.850,57.250 180.921 L 14.807 180.982 13.539 179.200 C 11.884 176.876,11.935 176.303,13.955 174.566 L 15.639 173.116 56.133 173.344 C 78.404 173.469,98.490 173.748,100.769 173.965 M203.209 173.614 L 273.596 173.620 273.879 175.000 C 274.035 175.759,274.329 177.416,274.532 178.681 L 274.902 180.982 199.497 180.982 C 124.141 180.982,124.091 180.981,122.475 179.710 C 118.083 176.255,122.092 172.761,129.755 173.367 C 131.442 173.500,164.496 173.611,203.209 173.614 M385.081 175.102 C 386.398 176.634,386.429 176.843,385.538 178.204 C 383.757 180.921,382.794 180.982,341.566 180.982 L 302.333 180.982 300.553 179.076 C 298.342 176.709,298.326 175.903,300.460 174.211 L 302.147 172.874 342.908 173.167 L 383.668 173.460 385.081 175.102 M128.883 193.255 C 132.642 194.299,137.429 198.147,139.452 201.752 L 141.296 205.037 141.592 232.273 L 141.889 259.509 137.202 259.509 L 132.515 259.509 132.515 251.227 L 132.515 242.945 125.153 242.945 L 117.791 242.945 117.791 251.177 L 117.791 259.409 113.443 259.612 C 111.052 259.724,108.981 259.701,108.842 259.560 C 108.265 258.977,108.628 205.712,109.224 203.567 C 111.170 196.559,121.421 191.182,128.883 193.255 M220.417 198.466 L 220.514 203.988 215.011 204.162 L 209.509 204.336 209.681 231.923 L 209.852 259.509 204.954 259.509 L 200.056 259.509 199.625 257.213 C 199.388 255.950,199.362 243.527,199.567 229.606 L 199.940 204.294 194.178 204.294 C 187.443 204.294,187.873 204.725,188.208 198.325 L 188.472 193.276 201.138 193.084 C 208.104 192.979,215.270 192.904,217.062 192.919 L 220.321 192.945 220.417 198.466 M325.871 193.449 C 337.550 193.785,342.525 196.853,344.897 205.178 C 346.243 209.903,345.604 247.682,344.139 250.054 C 339.947 256.836,335.399 258.652,321.091 259.255 L 311.201 259.673 310.933 254.063 C 310.785 250.977,310.785 235.948,310.932 220.665 L 311.199 192.878 314.648 193.051 C 316.546 193.147,321.596 193.326,325.871 193.449 M377.192 195.037 C 380.889 196.903,383.367 199.553,385.135 203.528 C 386.026 205.533,386.187 209.271,386.385 232.669 L 386.613 259.509 381.957 259.509 L 377.301 259.509 377.301 250.920 L 377.301 242.331 369.632 242.331 L 361.963 242.331 361.900 244.939 C 361.865 246.373,361.888 249.671,361.952 252.267 C 362.126 259.418,362.064 259.509,357.014 259.509 L 352.761 259.509 352.637 236.656 C 352.463 204.535,352.526 203.866,356.177 199.080 C 361.003 192.752,369.448 191.128,377.192 195.037 M38.231 195.070 C 42.725 197.363,45.750 200.994,46.608 205.127 C 47.347 208.687,47.278 212.078,46.472 211.810 C 46.219 211.725,44.115 211.656,41.796 211.656 L 37.580 211.656 37.197 209.258 C 36.421 204.407,29.722 201.921,24.584 204.579 C 22.276 205.772,21.954 206.783,22.034 212.577 C 22.123 219.031,22.915 219.807,30.474 220.857 C 43.976 222.732,47.924 227.772,47.003 241.956 C 46.390 251.384,43.634 255.788,36.777 258.294 C 24.340 262.840,11.043 255.236,11.043 243.578 L 11.043 240.491 15.644 240.491 C 18.175 240.491,20.452 240.446,20.706 240.390 C 20.959 240.335,21.356 241.622,21.589 243.251 C 22.183 247.399,23.368 248.350,28.544 248.830 C 35.351 249.462,36.810 247.927,36.810 240.130 C 36.810 232.684,36.435 232.252,29.486 231.672 C 21.844 231.035,15.570 227.353,12.769 221.861 C 10.980 218.355,11.058 204.805,12.888 201.219 C 16.623 193.896,29.709 190.721,38.231 195.070 M59.696 195.859 C 63.134 200.110,76.074 221.855,76.074 223.383 C 76.074 224.955,77.299 223.397,79.628 218.865 C 89.198 200.237,93.636 194.223,98.378 193.454 L 100.613 193.091 100.613 226.300 L 100.613 259.509 95.714 259.509 L 90.815 259.509 90.653 240.337 L 90.491 221.166 87.893 225.550 C 81.781 235.867,77.336 241.578,76.040 240.777 C 75.104 240.198,69.825 232.098,66.659 226.380 L 64.110 221.779 63.804 240.748 L 63.497 259.718 58.589 259.663 L 53.681 259.609 53.499 229.651 C 53.285 194.376,53.357 193.252,55.831 193.252 C 57.156 193.252,58.103 193.890,59.696 195.859 M172.511 193.973 C 179.999 196.216,183.035 201.759,183.328 213.718 C 183.600 224.849,183.015 226.883,178.374 230.943 L 175.251 233.675 177.759 239.077 C 181.534 247.208,183.444 252.657,183.838 256.424 L 184.193 259.816 179.673 259.509 L 175.153 259.202 171.976 249.842 C 167.514 236.697,166.728 235.402,162.877 234.851 C 161.195 234.611,159.630 234.608,159.400 234.845 C 159.006 235.249,158.389 247.101,158.315 255.675 L 158.282 259.509 153.681 259.509 L 149.080 259.509 149.080 226.380 L 149.080 193.252 159.591 193.252 C 165.874 193.252,171.072 193.542,172.511 193.973 M251.853 194.698 C 259.198 198.118,261.317 202.186,261.336 212.900 C 261.351 221.077,261.210 221.569,257.789 225.283 L 256.257 226.947 258.481 229.409 C 261.324 232.556,261.497 233.357,261.249 242.226 C 261.009 250.813,259.808 253.343,254.379 256.700 C 251.433 258.521,228.543 260.650,227.128 259.234 C 226.551 258.657,226.649 199.960,227.234 196.166 L 227.683 193.252 238.228 193.258 C 247.987 193.263,249.003 193.370,251.853 194.698 M293.469 194.095 C 296.358 195.302,299.782 198.491,301.711 201.771 L 303.374 204.601 303.322 226.380 C 303.272 247.347,303.221 248.254,301.963 250.701 C 295.993 262.308,275.980 261.981,269.887 250.178 C 268.066 246.650,268.085 206.087,269.909 202.511 C 274.004 194.485,285.001 190.557,293.469 194.095 M282.054 203.604 C 281.633 203.731,280.553 204.519,279.654 205.356 L 278.019 206.878 277.950 226.169 L 277.880 245.459 279.691 247.270 C 282.265 249.844,289.041 249.962,291.986 247.484 L 293.882 245.889 293.720 225.893 L 293.558 205.897 291.480 204.683 C 289.569 203.567,284.216 202.955,282.054 203.604 M320.500 226.363 L 320.552 249.400 326.329 248.937 C 336.410 248.129,336.196 248.636,336.196 225.541 L 336.196 207.603 334.202 205.704 C 332.308 203.900,331.915 203.794,326.329 203.566 L 320.449 203.326 320.500 226.363 M364.960 205.378 L 362.483 207.689 362.550 219.918 C 362.587 226.644,362.677 232.194,362.750 232.251 C 364.088 233.300,376.634 232.788,376.934 231.672 C 377.560 229.339,377.331 208.565,376.665 207.321 C 374.554 203.377,368.231 202.327,364.960 205.378 M121.472 204.964 C 117.867 207.110,117.879 207.057,117.817 220.613 L 117.760 233.129 124.831 233.129 L 131.902 233.129 131.902 220.352 C 131.902 207.884,131.869 207.546,130.521 206.319 C 127.281 203.367,124.783 202.993,121.472 204.964 M158.923 215.732 C 158.944 224.711,159.173 228.398,159.794 229.755 L 160.637 231.595 160.686 229.868 C 160.786 226.417,161.623 225.767,165.963 225.767 C 172.592 225.767,173.608 224.379,173.823 215.031 L 173.993 207.669 172.208 205.982 C 170.574 204.437,170.016 204.294,165.629 204.294 C 162.993 204.294,160.400 204.127,159.866 203.922 C 159.001 203.590,158.899 204.868,158.923 215.732 M236.196 213.037 L 236.195 222.393 242.332 222.070 C 250.549 221.639,251.231 220.996,251.782 213.166 L 252.172 207.620 250.246 205.651 C 248.336 203.696,248.274 203.681,242.258 203.681 L 236.196 203.681 236.196 213.037 M235.847 240.644 L 235.890 249.387 242.331 249.194 C 251.063 248.933,252.147 248.030,252.147 241.011 C 252.147 236.548,252.024 236.098,250.243 234.070 L 248.339 231.902 242.072 231.902 L 235.805 231.902 235.847 240.644 " stroke="none" fill="#000000" fill-rule="evenodd"></path></g></svg>